<?xml version="1.0" standalone="no"?>
<?xml-stylesheet href="light.css" type="text/css"?>
<!DOCTYPE svg PUBLIC "-//W3C//DTD SVG 1.1//EN" "http://www.w3.org/Graphics/SVG/1.1/DTD/svg11.dtd">
<svg xmlns="http://www.w3.org/2000/svg" version="1.1" viewBox="0 0 1000 1000"><g transform="translate(83.34039308113756,326.99121041511415) scale(0.5072159659138361)"><path class="tree-link" d="M190,12.5C85.5,12.5 85.5,12.5 85.5,12.5" style="stroke-opacity: 1;"></path><path class="tree-link" d="M1140,-133.44444444444446C275.5,-133.44444444444443 275.5,12.5 275.5,12.5" style="stroke-opacity: 1;"></path><path class="tree-link" d="M380,158.44444444444443C275.5,158.44444444444443 275.5,12.5 275.5,12.5" style="stroke-opacity: 1;"></path><path class="tree-link" d="M1140,-49.44444444444446C465.5,-49.44444444444446 465.5,158.44444444444443 465.5,158.44444444444443" style="stroke-opacity: 1;"></path><path class="tree-link" d="M1140,10.555555555555543C465.5,10.555555555555557 465.5,158.44444444444443 465.5,158.44444444444443" style="stroke-opacity: 1;"></path><path class="tree-link" d="M570,514.2222222222222C465.5,514.2222222222222 465.5,158.44444444444443 465.5,158.44444444444443" style="stroke-opacity: 1;"></path><path class="tree-link" d="M1140,94.55555555555554C655.5,94.55555555555554 655.5,514.2222222222222 655.5,514.2222222222222" style="stroke-opacity: 1;"></path><path class="tree-link" d="M1140,154.55555555555554C655.5,154.55555555555554 655.5,514.2222222222222 655.5,514.2222222222222" style="stroke-opacity: 1;"></path><path class="tree-link" d="M760,346.5555555555556C655.5,346.5555555555556 655.5,514.2222222222222 655.5,514.2222222222222" style="stroke-opacity: 1;"></path><path class="tree-link" d="M1140,550.5555555555557C655.5,550.5555555555557 655.5,514.2222222222222 655.5,514.2222222222222" style="stroke-opacity: 1;"></path><path class="tree-link" d="M760,824.5555555555557C655.5,824.5555555555557 655.5,514.2222222222222 655.5,514.2222222222222" style="stroke-opacity: 1;"></path><path class="tree-link" d="M1140,1114.5555555555554C655.5,1114.5555555555554 655.5,514.2222222222222 655.5,514.2222222222222" style="stroke-opacity: 1;"></path><path class="tree-link" d="M1140,238.55555555555551C845.5,238.55555555555551 845.5,346.5555555555556 845.5,346.5555555555556" style="stroke-opacity: 1;"></path><path class="tree-link" d="M1140,298.55555555555554C845.5,298.55555555555554 845.5,346.5555555555556 845.5,346.5555555555556" style="stroke-opacity: 1;"></path><path class="tree-link" d="M950,382.55555555555554C845.5,382.55555555555554 845.5,346.5555555555556 845.5,346.5555555555556" style="stroke-opacity: 1;"></path><path class="tree-link" d="M1140,466.5555555555556C845.5,466.5555555555556 845.5,346.5555555555556 845.5,346.5555555555556" style="stroke-opacity: 1;"></path><path class="tree-link" d="M1140,382.55555555555554C1035.5,382.55555555555554 1035.5,382.55555555555554 1035.5,382.55555555555554" style="stroke-opacity: 1;"></path><path class="tree-link" d="M1140,634.5555555555557C845.5,634.5555555555557 845.5,824.5555555555557 845.5,824.5555555555557" style="stroke-opacity: 1;"></path><path class="tree-link" d="M1140,694.5555555555557C845.5,694.5555555555557 845.5,824.5555555555557 845.5,824.5555555555557" style="stroke-opacity: 1;"></path><path class="tree-link" d="M950,778.5555555555557C845.5,778.5555555555557 845.5,824.5555555555557 845.5,824.5555555555557" style="stroke-opacity: 1;"></path><path class="tree-link" d="M1140,862.5555555555557C845.5,862.5555555555557 845.5,824.5555555555557 845.5,824.5555555555557" style="stroke-opacity: 1;"></path><path class="tree-link" d="M950,946.5555555555555C845.5,946.5555555555555 845.5,824.5555555555557 845.5,824.5555555555557" style="stroke-opacity: 1;"></path><path class="tree-link" d="M1140,1030.5555555555557C845.5,1030.5555555555557 845.5,824.5555555555557 845.5,824.5555555555557" style="stroke-opacity: 1;"></path><path class="tree-link" d="M1140,778.5555555555557C1035.5,778.5555555555557 1035.5,778.5555555555557 1035.5,778.5555555555557" style="stroke-opacity: 1;"></path><path class="tree-link" d="M1140,946.5555555555555C1035.5,946.5555555555555 1035.5,946.5555555555555 1035.5,946.5555555555555" style="stroke-opacity: 1;"></path><g class="tree-node tree-root" transform="" style="opacity: 1;"><rect width="171" height="25" rx="0" ry="0"></rect><text class="node-text" y="12.5" dy=".35em" x="75.6484375">file</text><text class="token-range" x="0" y="12.5" dx="0" dy="-1.8em">⨳ 0-17</text><text class="token-value" x="0" y="12.5" dy="0.25em" dx="191"></text></g><g class="tree-node" transform="translate(190, 0)" style="opacity: 1;"><rect width="171" height="25" rx="0" ry="0"></rect><text class="node-text" y="12.5" dy=".35em" x="65.7734375">explist</text><text class="token-range" x="0" y="12.5" dx="0" dy="-1.8em">⨳ 0-16</text><text class="token-value" x="0" y="12.5" dy="0.25em" dx="191"></text></g><g class="tree-node tree-leaf" transform="translate(1140, -145.94444274902344)" style="opacity: 1;"><rect width="171" height="25" rx="10" ry="10"></rect><text class="node-text" y="12.5" dy=".35em" x="55.5859375">NEWLINE</text><text class="token-range" x="0" y="12.5" dx="NaN" dy="-1.8em">⨳ 0</text><text class="token-value" x="0" y="12.5" dy="0.25em" dx="191">
</text></g><g class="tree-node" transform="translate(380, 145.94444274902344)" style="opacity: 1;"><rect width="171" height="25" rx="0" ry="0"></rect><text class="node-text" y="12.5" dy=".35em" x="54.359375">expression</text><text class="token-range" x="0" y="12.5" dx="NaN" dy="-1.8em">⨳ 1-16</text><text class="token-value" x="0" y="12.5" dy="0.25em" dx="191"></text></g><g class="tree-node tree-leaf" transform="translate(1140, -61.94444274902344)" style="opacity: 1;"><rect width="171" height="25" rx="10" ry="10"></rect><text class="node-text" y="12.5" dy=".35em" x="53.703125">VARNAME</text><text class="token-range" x="0" y="12.5" dx="NaN" dy="-1.8em">⨳ 1</text><text class="token-value" x="0" y="12.5" dy="0.25em" dx="191">C</text></g><g class="tree-node tree-leaf" transform="translate(1140, -1.9444445371627808)" style="opacity: 1;"><rect width="171" height="25" rx="10" ry="10"></rect><text class="node-text" y="12.5" dy=".35em" x="58.578125">EQUALS</text><text class="token-range" x="0" y="12.5" dx="NaN" dy="-1.8em">⨳ 2</text><text class="token-value" x="0" y="12.5" dy="0.25em" dx="191">=</text></g><g class="tree-node" transform="translate(570, 501.72222900390625)" style="opacity: 1;"><rect width="171" height="25" rx="0" ry="0"></rect><text class="node-text" y="12.5" dy=".35em" x="60.34375">mathexp</text><text class="token-range" x="0" y="12.5" dx="NaN" dy="-1.8em">⨳ 3-16</text><text class="token-value" x="0" y="12.5" dy="0.25em" dx="191"></text></g><g class="tree-node tree-leaf" transform="translate(1140, 82.05555725097656)" style="opacity: 1;"><rect width="171" height="25" rx="10" ry="10"></rect><text class="node-text" y="12.5" dy=".35em" x="53.703125">VARNAME</text><text class="token-range" x="0" y="12.5" dx="NaN" dy="-1.8em">⨳ 3</text><text class="token-value" x="0" y="12.5" dy="0.25em" dx="191">matrix_power</text></g><g class="tree-node tree-leaf" transform="translate(1140, 142.05555725097656)" style="opacity: 1;"><rect width="171" height="25" rx="10" ry="10"></rect><text class="node-text" y="12.5" dy=".35em" x="58.578125">OPEN_B</text><text class="token-range" x="0" y="12.5" dx="NaN" dy="-1.8em">⨳ 4</text><text class="token-value" x="0" y="12.5" dy="0.25em" dx="191">(</text></g><g class="tree-node" transform="translate(760, 334.0555419921875)" style="opacity: 1;"><rect width="171" height="25" rx="0" ry="0"></rect><text class="node-text" y="12.5" dy=".35em" x="60.34375">mathexp</text><text class="token-range" x="0" y="12.5" dx="NaN" dy="-1.8em">⨳ 5-8</text><text class="token-value" x="0" y="12.5" dy="0.25em" dx="191"></text></g><g class="tree-node tree-leaf" transform="translate(1140, 538.0555419921875)" style="opacity: 1;"><rect width="171" height="25" rx="10" ry="10"></rect><text class="node-text" y="12.5" dy=".35em" x="60.25">KOMMA</text><text class="token-range" x="0" y="12.5" dx="NaN" dy="-1.8em">⨳ 9</text><text class="token-value" x="0" y="12.5" dy="0.25em" dx="191">,</text></g><g class="tree-node" transform="translate(760, 812.0555419921875)" style="opacity: 1;"><rect width="171" height="25" rx="0" ry="0"></rect><text class="node-text" y="12.5" dy=".35em" x="60.34375">mathexp</text><text class="token-range" x="0" y="12.5" dx="NaN" dy="-1.8em">⨳ 10-15</text><text class="token-value" x="0" y="12.5" dy="0.25em" dx="191"></text></g><g class="tree-node tree-leaf" transform="translate(1140, 1102.0555419921875)" style="opacity: 1;"><rect width="171" height="25" rx="10" ry="10"></rect><text class="node-text" y="12.5" dy=".35em" x="55.25">CLOSE_B</text><text class="token-range" x="0" y="12.5" dx="NaN" dy="-1.8em">⨳ 16</text><text class="token-value" x="0" y="12.5" dy="0.25em" dx="191">)</text></g><g class="tree-node tree-leaf" transform="translate(1140, 226.05555725097656)" style="opacity: 1;"><rect width="171" height="25" rx="10" ry="10"></rect><text class="node-text" y="12.5" dy=".35em" x="53.703125">VARNAME</text><text class="token-range" x="0" y="12.5" dx="NaN" dy="-1.8em">⨳ 5</text><text class="token-value" x="0" y="12.5" dy="0.25em" dx="191">transpose</text></g><g class="tree-node tree-leaf" transform="translate(1140, 286.0555419921875)" style="opacity: 1;"><rect width="171" height="25" rx="10" ry="10"></rect><text class="node-text" y="12.5" dy=".35em" x="58.578125">OPEN_B</text><text class="token-range" x="0" y="12.5" dx="NaN" dy="-1.8em">⨳ 6</text><text class="token-value" x="0" y="12.5" dy="0.25em" dx="191">(</text></g><g class="tree-node" transform="translate(950, 370.0555419921875)" style="opacity: 1;"><rect width="171" height="25" rx="0" ry="0"></rect><text class="node-text" y="12.5" dy=".35em" x="60.34375">mathexp</text><text class="token-range" x="0" y="12.5" dx="NaN" dy="-1.8em">⨳ 7</text><text class="token-value" x="0" y="12.5" dy="0.25em" dx="191"></text></g><g class="tree-node tree-leaf" transform="translate(1140, 454.0555419921875)" style="opacity: 1;"><rect width="171" height="25" rx="10" ry="10"></rect><text class="node-text" y="12.5" dy=".35em" x="55.25">CLOSE_B</text><text class="token-range" x="0" y="12.5" dx="NaN" dy="-1.8em">⨳ 8</text><text class="token-value" x="0" y="12.5" dy="0.25em" dx="191">)</text></g><g class="tree-node tree-leaf" transform="translate(1140, 622.0555419921875)" style="opacity: 1;"><rect width="171" height="25" rx="10" ry="10"></rect><text class="node-text" y="12.5" dy=".35em" x="53.703125">VARNAME</text><text class="token-range" x="0" y="12.5" dx="NaN" dy="-1.8em">⨳ 10</text><text class="token-value" x="0" y="12.5" dy="0.25em" dx="191">min</text></g><g class="tree-node tree-leaf" transform="translate(1140, 682.0555419921875)" style="opacity: 1;"><rect width="171" height="25" rx="10" ry="10"></rect><text class="node-text" y="12.5" dy=".35em" x="58.578125">OPEN_B</text><text class="token-range" x="0" y="12.5" dx="NaN" dy="-1.8em">⨳ 11</text><text class="token-value" x="0" y="12.5" dy="0.25em" dx="191">(</text></g><g class="tree-node" transform="translate(950, 766.0555419921875)" style="opacity: 1;"><rect width="171" height="25" rx="0" ry="0"></rect><text class="node-text" y="12.5" dy=".35em" x="60.34375">mathexp</text><text class="token-range" x="0" y="12.5" dx="NaN" dy="-1.8em">⨳ 12</text><text class="token-value" x="0" y="12.5" dy="0.25em" dx="191"></text></g><g class="tree-node tree-leaf" transform="translate(1140, 850.0555419921875)" style="opacity: 1;"><rect width="171" height="25" rx="10" ry="10"></rect><text class="node-text" y="12.5" dy=".35em" x="60.25">KOMMA</text><text class="token-range" x="0" y="12.5" dx="NaN" dy="-1.8em">⨳ 13</text><text class="token-value" x="0" y="12.5" dy="0.25em" dx="191">,</text></g><g class="tree-node" transform="translate(950, 934.0555419921875)" style="opacity: 1;"><rect width="171" height="25" rx="0" ry="0"></rect><text class="node-text" y="12.5" dy=".35em" x="60.34375">mathexp</text><text class="token-range" x="0" y="12.5" dx="NaN" dy="-1.8em">⨳ 14</text><text class="token-value" x="0" y="12.5" dy="0.25em" dx="191"></text></g><g class="tree-node tree-leaf" transform="translate(1140, 1018.0555419921875)" style="opacity: 1;"><rect width="171" height="25" rx="10" ry="10"></rect><text class="node-text" y="12.5" dy=".35em" x="55.25">CLOSE_B</text><text class="token-range" x="0" y="12.5" dx="NaN" dy="-1.8em">⨳ 15</text><text class="token-value" x="0" y="12.5" dy="0.25em" dx="191">)</text></g><g class="tree-node tree-leaf" transform="translate(1140, 370.0555419921875)" style="opacity: 1;"><rect width="171" height="25" rx="10" ry="10"></rect><text class="node-text" y="12.5" dy=".35em" x="53.703125">VARNAME</text><text class="token-range" x="0" y="12.5" dx="NaN" dy="-1.8em">⨳ 7</text><text class="token-value" x="0" y="12.5" dy="0.25em" dx="191">A</text></g><g class="tree-node tree-leaf" transform="translate(1140, 766.0555419921875)" style="opacity: 1;"><rect width="171" height="25" rx="10" ry="10"></rect><text class="node-text" y="12.5" dy=".35em" x="53.703125">VARNAME</text><text class="token-range" x="0" y="12.5" dx="NaN" dy="-1.8em">⨳ 12</text><text class="token-value" x="0" y="12.5" dy="0.25em" dx="191">z</text></g><g class="tree-node tree-leaf" transform="translate(1140, 934.0555419921875)" style="opacity: 1;"><rect width="171" height="25" rx="10" ry="10"></rect><text class="node-text" y="12.5" dy=".35em" x="56.5859375">INTEGER</text><text class="token-range" x="0" y="12.5" dx="NaN" dy="-1.8em">⨳ 14</text><text class="token-value" x="0" y="12.5" dy="0.25em" dx="191">0</text></g></g></svg>